<svg id="svg" version="1.1" width="400" height="457.9166666666667" viewBox="0 0 400 457.9166666666667" xmlns="http://www.w3.org/2000/svg" xmlns:xlink="http://www.w3.org/1999/xlink"><g id="svgg"><path id="path0" d="M13.542 45.352 C 11.166 46.247,11.290 46.584,18.546 58.958 C 19.654 60.849,21.293 63.661,22.186 65.208 C 23.080 66.755,24.393 69.005,25.103 70.208 C 26.666 72.854,33.945 85.404,36.764 90.313 C 37.883 92.260,39.055 94.276,39.368 94.792 C 39.681 95.307,40.718 97.089,41.673 98.750 C 43.722 102.317,46.872 107.753,49.581 112.396 C 51.868 116.315,53.018 118.295,58.111 127.083 C 60.202 130.693,62.594 134.818,63.425 136.250 C 70.478 148.406,72.523 151.923,76.566 158.854 C 79.105 163.208,82.313 168.740,83.693 171.146 C 85.073 173.552,87.557 177.865,89.213 180.729 C 90.868 183.594,95.060 190.859,98.527 196.875 C 101.995 202.891,104.906 207.906,104.996 208.021 C 105.086 208.135,106.825 211.135,108.860 214.687 C 116.032 227.201,116.357 227.702,117.678 228.267 C 119.531 229.059,119.680 228.879,127.917 215.916 C 137.383 201.018,137.876 200.243,139.648 197.500 C 140.499 196.182,142.087 193.698,143.176 191.979 C 144.266 190.260,147.599 185.057,150.583 180.417 C 153.568 175.776,156.520 171.182,157.144 170.208 C 159.253 166.916,164.848 158.240,165.943 156.563 C 166.921 155.065,168.194 153.086,174.655 143.021 C 177.018 139.339,177.318 138.663,177.316 137.024 C 177.313 134.903,177.460 135.196,171.668 125.729 C 169.915 122.865,168.089 119.865,167.609 119.063 C 167.129 118.260,166.096 116.573,165.312 115.313 C 164.529 114.052,162.979 111.521,161.868 109.688 C 160.758 107.854,158.229 103.682,156.249 100.417 C 154.269 97.151,150.649 91.174,148.205 87.135 C 145.761 83.095,143.447 79.298,143.063 78.697 C 142.679 78.096,141.071 75.495,139.491 72.917 C 134.811 65.283,133.263 63.228,129.506 59.662 C 121.307 51.880,111.057 47.109,99.271 45.588 C 97.320 45.337,14.190 45.107,13.542 45.352 M289.063 45.355 C 274.203 46.159,260.242 53.093,251.191 64.167 C 249.722 65.964,247.649 68.934,244.375 73.932 C 242.714 76.468,239.292 81.682,236.771 85.519 C 234.250 89.355,231.156 94.092,229.896 96.045 C 228.635 97.998,226.571 101.164,225.309 103.079 C 224.047 104.995,222.256 107.734,221.329 109.167 C 220.401 110.599,218.022 114.255,216.040 117.292 C 211.703 123.939,202.973 137.342,195.211 149.271 C 180.510 171.864,175.640 179.360,169.694 188.542 C 160.122 203.324,158.210 206.268,153.564 213.387 C 138.240 236.862,132.866 245.151,131.704 247.100 C 131.459 247.511,131.110 248.430,130.927 249.143 C 130.326 251.489,129.860 250.503,140.104 268.542 C 141.503 271.005,144.502 276.302,146.768 280.313 C 156.274 297.135,156.107 296.875,157.352 296.875 C 158.623 296.875,158.907 296.502,165.452 286.250 C 166.878 284.016,169.241 280.313,170.703 278.021 C 172.164 275.729,174.634 271.885,176.191 269.479 C 177.747 267.073,180.677 262.526,182.702 259.375 C 193.215 243.012,196.353 238.131,196.997 237.141 C 198.412 234.967,199.169 234.882,201.887 236.598 C 202.969 237.281,205.682 238.975,207.917 240.363 C 214.289 244.320,214.276 244.289,211.366 248.854 C 204.213 260.073,184.126 291.489,182.193 294.479 C 180.969 296.373,169.258 314.847,167.654 317.415 C 164.503 322.461,163.648 324.719,163.085 329.479 C 162.688 332.833,162.689 412.533,163.086 417.453 C 163.800 426.309,163.124 426.133,197.083 426.324 C 236.728 426.546,245.015 426.157,247.303 423.967 C 248.904 422.434,248.938 421.225,248.980 365.104 C 248.999 340.354,249.087 318.604,249.176 316.771 C 249.728 305.448,252.580 296.404,258.628 286.798 C 261.440 282.331,269.520 268.837,275.734 258.229 C 276.741 256.510,278.615 253.323,279.900 251.146 C 283.743 244.632,292.105 230.412,293.130 228.646 C 294.308 226.617,297.984 220.359,300.412 216.250 C 303.210 211.515,307.584 204.085,312.248 196.146 C 313.796 193.510,316.253 189.339,317.708 186.875 C 319.164 184.411,321.883 179.771,323.752 176.563 C 325.620 173.354,328.198 168.948,329.481 166.771 C 330.764 164.594,332.450 161.734,333.226 160.417 C 334.003 159.099,335.130 157.177,335.732 156.146 C 336.333 155.115,337.601 152.958,338.550 151.354 C 339.498 149.750,341.556 146.234,343.123 143.542 C 344.690 140.849,346.631 137.521,347.438 136.146 C 348.244 134.771,350.244 131.349,351.883 128.542 C 353.521 125.734,355.252 122.781,355.728 121.979 C 356.204 121.177,357.937 118.224,359.579 115.417 C 364.359 107.245,370.942 96.079,378.801 82.813 C 385.375 71.717,387.365 68.348,388.957 65.625 C 389.795 64.193,391.485 61.333,392.713 59.271 C 393.941 57.208,395.771 54.115,396.779 52.396 C 400.223 46.529,400.168 46.676,399.254 45.818 L 398.717 45.313 370.973 45.262 C 355.714 45.234,343.020 45.268,342.764 45.337 C 342.489 45.412,341.943 46.028,341.427 46.846 C 340.947 47.607,337.492 52.964,333.750 58.750 C 330.007 64.536,326.695 69.667,326.390 70.151 C 325.005 72.347,324.209 72.282,320.154 69.642 C 318.408 68.505,315.714 66.787,314.167 65.824 C 310.677 63.651,310.417 63.405,310.417 62.274 C 310.417 61.323,310.410 61.336,313.130 57.083 C 314.119 55.536,315.849 52.818,316.975 51.042 C 318.100 49.266,319.335 47.345,319.719 46.774 C 320.103 46.202,320.417 45.616,320.417 45.472 C 320.417 45.228,293.270 45.127,289.063 45.355 M297.253 96.848 C 304.238 101.306,304.155 101.248,304.493 101.901 C 305.006 102.894,304.841 103.427,303.299 105.761 C 300.686 109.719,283.964 135.613,282.053 138.662 C 278.870 143.742,279.947 143.847,270.026 137.493 C 263.884 133.560,263.937 133.674,266.438 129.792 C 267.213 128.589,268.993 125.823,270.394 123.646 C 271.794 121.469,273.708 118.510,274.647 117.071 C 275.586 115.632,277.428 112.773,278.740 110.717 C 280.053 108.661,281.703 106.089,282.407 105.000 C 284.693 101.467,287.825 96.588,288.500 95.509 C 290.341 92.564,290.603 92.604,297.253 96.848 M248.873 165.190 C 261.443 173.152,260.746 172.316,258.163 176.321 C 257.486 177.371,255.453 180.526,253.644 183.333 C 251.836 186.141,248.933 190.641,247.193 193.333 C 243.887 198.450,236.593 209.781,235.150 212.042 C 233.704 214.308,232.619 214.501,230.086 212.945 C 216.932 204.861,217.622 205.779,220.910 200.745 C 221.739 199.476,222.768 197.875,223.197 197.188 C 223.626 196.500,224.705 194.813,225.594 193.438 C 229.279 187.742,238.663 173.124,241.348 168.896 C 245.168 162.881,245.202 162.864,248.873 165.190 " stroke="none" fill="#496453" fill-rule="evenodd"></path><path id="path1" d="M0.000 228.958 L 0.000 457.917 200.000 457.917 L 400.000 457.917 400.000 228.958 L 400.000 0.000 200.000 0.000 L 0.000 0.000 0.000 228.958 M99.271 45.588 C 111.057 47.109,121.307 51.880,129.506 59.662 C 133.263 63.228,134.811 65.283,139.491 72.917 C 141.071 75.495,142.679 78.096,143.063 78.697 C 143.447 79.298,145.761 83.095,148.205 87.135 C 150.649 91.174,154.269 97.151,156.249 100.417 C 158.229 103.682,160.758 107.854,161.868 109.688 C 162.979 111.521,164.529 114.052,165.312 115.313 C 166.096 116.573,167.129 118.260,167.609 119.063 C 168.089 119.865,169.915 122.865,171.668 125.729 C 177.460 135.196,177.313 134.903,177.316 137.024 C 177.318 138.663,177.018 139.339,174.655 143.021 C 168.194 153.086,166.921 155.065,165.943 156.563 C 164.848 158.240,159.253 166.916,157.144 170.208 C 156.520 171.182,153.568 175.776,150.583 180.417 C 147.599 185.057,144.266 190.260,143.176 191.979 C 142.087 193.698,140.499 196.182,139.648 197.500 C 137.876 200.243,137.383 201.018,127.917 215.916 C 119.680 228.879,119.531 229.059,117.678 228.267 C 116.357 227.702,116.032 227.201,108.860 214.687 C 106.825 211.135,105.086 208.135,104.996 208.021 C 104.906 207.906,101.995 202.891,98.527 196.875 C 95.060 190.859,90.868 183.594,89.213 180.729 C 87.557 177.865,85.073 173.552,83.693 171.146 C 82.313 168.740,79.105 163.208,76.566 158.854 C 72.523 151.923,70.478 148.406,63.425 136.250 C 62.594 134.818,60.202 130.693,58.111 127.083 C 53.018 118.295,51.868 116.315,49.581 112.396 C 46.872 107.753,43.722 102.317,41.673 98.750 C 40.718 97.089,39.681 95.307,39.368 94.792 C 39.055 94.276,37.883 92.260,36.764 90.313 C 33.945 85.404,26.666 72.854,25.103 70.208 C 24.393 69.005,23.080 66.755,22.186 65.208 C 21.293 63.661,19.654 60.849,18.546 58.958 C 11.290 46.584,11.166 46.247,13.542 45.352 C 14.190 45.107,97.320 45.337,99.271 45.588 M320.417 45.472 C 320.417 45.616,320.103 46.202,319.719 46.774 C 319.335 47.345,318.100 49.266,316.975 51.042 C 315.849 52.818,314.119 55.536,313.130 57.083 C 310.410 61.336,310.417 61.323,310.417 62.274 C 310.417 63.405,310.677 63.651,314.167 65.824 C 315.714 66.787,318.408 68.505,320.154 69.642 C 324.209 72.282,325.005 72.347,326.390 70.151 C 326.695 69.667,330.007 64.536,333.750 58.750 C 337.492 52.964,340.947 47.607,341.427 46.846 C 341.943 46.028,342.489 45.412,342.764 45.337 C 343.020 45.268,355.714 45.234,370.973 45.262 L 398.717 45.313 399.254 45.818 C 400.168 46.676,400.223 46.529,396.779 52.396 C 395.771 54.115,393.941 57.208,392.713 59.271 C 391.485 61.333,389.795 64.193,388.957 65.625 C 387.365 68.348,385.375 71.717,378.801 82.813 C 370.942 96.079,364.359 107.245,359.579 115.417 C 357.937 118.224,356.204 121.177,355.728 121.979 C 355.252 122.781,353.521 125.734,351.883 128.542 C 350.244 131.349,348.244 134.771,347.438 136.146 C 346.631 137.521,344.690 140.849,343.123 143.542 C 341.556 146.234,339.498 149.750,338.550 151.354 C 337.601 152.958,336.333 155.115,335.732 156.146 C 335.130 157.177,334.003 159.099,333.226 160.417 C 332.450 161.734,330.764 164.594,329.481 166.771 C 328.198 168.948,325.620 173.354,323.752 176.563 C 321.883 179.771,319.164 184.411,317.708 186.875 C 316.253 189.339,313.796 193.510,312.248 196.146 C 307.584 204.085,303.210 211.515,300.412 216.250 C 297.984 220.359,294.308 226.617,293.130 228.646 C 292.105 230.412,283.743 244.632,279.900 251.146 C 278.615 253.323,276.741 256.510,275.734 258.229 C 269.520 268.837,261.440 282.331,258.628 286.798 C 252.580 296.404,249.728 305.448,249.176 316.771 C 249.087 318.604,248.999 340.354,248.980 365.104 C 248.938 421.225,248.904 422.434,247.303 423.967 C 245.015 426.157,236.728 426.546,197.083 426.324 C 163.124 426.133,163.800 426.309,163.086 417.453 C 162.689 412.533,162.688 332.833,163.085 329.479 C 163.648 324.719,164.503 322.461,167.654 317.415 C 169.258 314.847,180.969 296.373,182.193 294.479 C 184.126 291.489,204.213 260.073,211.366 248.854 C 214.276 244.289,214.289 244.320,207.917 240.363 C 205.682 238.975,202.969 237.281,201.887 236.598 C 199.169 234.882,198.412 234.967,196.997 237.141 C 196.353 238.131,193.215 243.012,182.702 259.375 C 180.677 262.526,177.747 267.073,176.191 269.479 C 174.634 271.885,172.164 275.729,170.703 278.021 C 158.100 297.777,158.739 296.875,157.352 296.875 C 156.107 296.875,156.274 297.135,146.768 280.313 C 144.502 276.302,141.503 271.005,140.104 268.542 C 129.860 250.503,130.326 251.489,130.927 249.143 C 131.397 247.307,130.603 248.562,153.564 213.387 C 158.210 206.268,160.122 203.324,169.694 188.542 C 175.640 179.360,180.510 171.864,195.211 149.271 C 202.973 137.342,211.703 123.939,216.040 117.292 C 218.022 114.255,220.401 110.599,221.329 109.167 C 222.256 107.734,224.047 104.995,225.309 103.079 C 226.571 101.164,228.635 97.998,229.896 96.045 C 231.156 94.092,234.250 89.355,236.771 85.519 C 239.292 81.682,242.714 76.468,244.375 73.932 C 247.649 68.934,249.722 65.964,251.191 64.167 C 260.242 53.093,274.203 46.159,289.063 45.355 C 293.270 45.127,320.417 45.228,320.417 45.472 M290.417 93.474 C 289.874 93.684,289.181 94.420,288.500 95.509 C 287.825 96.588,284.693 101.467,282.407 105.000 C 281.703 106.089,280.053 108.661,278.740 110.717 C 277.428 112.773,275.586 115.632,274.647 117.071 C 273.708 118.510,271.794 121.469,270.394 123.646 C 268.993 125.823,267.213 128.589,266.438 129.792 C 263.937 133.674,263.884 133.560,270.026 137.493 C 279.947 143.847,278.870 143.742,282.053 138.662 C 283.964 135.613,300.686 109.719,303.299 105.761 C 305.219 102.855,305.218 102.003,303.295 100.727 C 294.805 95.092,291.315 93.126,290.417 93.474 M244.773 164.060 C 244.439 164.242,243.133 166.086,241.348 168.896 C 238.663 173.124,229.279 187.742,225.594 193.438 C 224.705 194.813,223.626 196.500,223.197 197.188 C 222.768 197.875,221.739 199.476,220.910 200.745 C 217.622 205.779,216.932 204.861,230.086 212.945 C 232.619 214.501,233.704 214.308,235.150 212.042 C 236.593 209.781,243.887 198.450,247.193 193.333 C 248.933 190.641,251.836 186.141,253.644 183.333 C 255.453 180.526,257.486 177.371,258.163 176.321 C 260.746 172.316,261.443 173.152,248.873 165.190 C 246.480 163.674,245.819 163.491,244.773 164.060 " stroke="none" fill="#ffffff" fill-rule="evenodd"></path></g></svg>