<svg id="svg" version="1.1" xmlns="http://www.w3.org/2000/svg" xmlns:xlink="http://www.w3.org/1999/xlink" width="400" height="393.61963190184053" viewBox="0, 0, 400,393.61963190184053"><g id="svgg"><path id="path0" d="M21.190 0.295 C 28.189 0.355,39.527 0.355,46.387 0.295 C 53.246 0.235,47.520 0.185,33.661 0.185 C 19.803 0.186,14.191 0.235,21.190 0.295 M294.607 0.294 C 296.730 0.365,300.096 0.364,302.087 0.293 C 304.079 0.222,302.343 0.164,298.228 0.164 C 294.114 0.164,292.485 0.223,294.607 0.294 M365.059 0.295 C 370.202 0.357,378.617 0.357,383.760 0.295 C 388.903 0.233,384.695 0.182,374.409 0.182 C 364.124 0.182,359.916 0.233,365.059 0.295 M155.512 392.717 C 155.512 393.041,155.799 393.307,156.151 393.307 C 156.674 393.307,156.701 393.200,156.299 392.717 C 156.030 392.392,155.742 392.126,155.660 392.126 C 155.579 392.126,155.512 392.392,155.512 392.717 M240.945 392.913 C 239.607 393.195,239.622 393.205,241.460 393.255 C 242.634 393.287,243.261 393.157,243.110 392.913 C 242.976 392.697,242.744 392.543,242.595 392.572 C 242.445 392.600,241.703 392.754,240.945 392.913 M162.303 393.599 C 163.765 393.675,166.156 393.675,167.618 393.599 C 169.080 393.523,167.884 393.461,164.961 393.461 C 162.037 393.461,160.842 393.523,162.303 393.599 M224.705 393.599 C 226.275 393.674,228.844 393.674,230.413 393.599 C 231.983 393.525,230.699 393.464,227.559 393.464 C 224.419 393.464,223.135 393.525,224.705 393.599" stroke="none" fill="#d0e3c1" fill-rule="evenodd"/><path id="path1" d="M0.722 0.883 C 0.054 1.417,0.432 3.937,1.180 3.937 C 1.384 3.937,1.448 4.203,1.323 4.528 C 1.195 4.862,1.314 5.118,1.598 5.118 C 1.874 5.118,1.992 5.226,1.861 5.357 C 1.730 5.488,1.970 5.969,2.396 6.426 C 2.821 6.882,3.082 7.483,2.975 7.762 C 2.867 8.042,3.057 8.268,3.401 8.268 C 3.791 8.268,3.937 8.487,3.795 8.858 C 3.670 9.183,3.710 9.449,3.883 9.449 C 4.056 9.449,4.449 9.936,4.756 10.531 C 5.064 11.127,5.536 11.848,5.807 12.134 C 6.078 12.421,6.299 12.996,6.299 13.414 C 6.299 13.832,6.476 14.173,6.693 14.173 C 6.909 14.173,7.087 14.439,7.087 14.764 C 7.087 15.089,7.308 15.357,7.579 15.360 C 7.907 15.364,7.874 15.494,7.480 15.748 C 6.976 16.074,6.990 16.131,7.579 16.136 C 7.958 16.139,8.268 16.413,8.268 16.745 C 8.268 17.076,8.532 17.449,8.856 17.573 C 9.180 17.697,9.346 17.958,9.226 18.151 C 9.107 18.345,9.182 18.504,9.393 18.504 C 9.604 18.504,10.082 19.301,10.454 20.276 C 10.826 21.250,11.251 22.047,11.398 22.047 C 11.717 22.047,13.165 24.872,13.063 25.295 C 13.024 25.458,13.188 25.591,13.428 25.591 C 13.668 25.591,13.758 25.866,13.629 26.202 C 13.495 26.552,13.561 26.710,13.784 26.572 C 13.998 26.440,14.173 26.492,14.173 26.688 C 14.173 26.884,14.524 27.449,14.952 27.943 C 15.381 28.437,15.636 28.996,15.520 29.185 C 15.403 29.373,15.478 29.528,15.686 29.528 C 15.894 29.528,16.250 30.059,16.476 30.709 C 16.703 31.358,17.085 31.890,17.326 31.890 C 17.566 31.890,17.654 32.067,17.520 32.283 C 17.386 32.500,17.431 32.677,17.620 32.677 C 17.809 32.677,18.207 33.297,18.504 34.055 C 18.801 34.813,19.199 35.433,19.388 35.433 C 19.577 35.433,19.622 35.610,19.488 35.827 C 19.354 36.043,19.400 36.220,19.589 36.220 C 20.030 36.220,21.428 39.016,21.313 39.665 C 21.265 39.936,21.499 40.157,21.833 40.157 C 22.167 40.157,22.441 40.423,22.441 40.748 C 22.441 41.073,22.648 41.339,22.900 41.339 C 23.153 41.339,23.250 41.448,23.116 41.582 C 22.982 41.716,23.131 42.085,23.448 42.401 C 23.764 42.718,23.922 43.140,23.799 43.339 C 23.676 43.538,23.733 43.701,23.926 43.701 C 24.119 43.701,24.528 44.188,24.835 44.783 C 25.142 45.379,25.615 46.100,25.886 46.386 C 26.156 46.673,26.378 47.204,26.378 47.567 C 26.379 47.931,26.817 48.737,27.351 49.359 C 27.886 49.981,28.430 50.823,28.559 51.229 C 28.688 51.636,28.944 51.969,29.128 51.969 C 29.312 51.969,29.767 52.766,30.139 53.740 C 30.511 54.715,30.988 55.512,31.198 55.512 C 31.408 55.512,31.476 55.784,31.348 56.117 C 31.216 56.461,31.367 56.819,31.697 56.946 C 32.017 57.069,32.181 57.328,32.061 57.522 C 31.941 57.715,32.001 57.874,32.195 57.874 C 32.388 57.874,33.056 58.848,33.679 60.039 C 34.302 61.230,34.952 62.205,35.122 62.205 C 35.293 62.205,35.433 62.559,35.433 62.992 C 35.433 63.425,35.598 63.780,35.800 63.780 C 36.002 63.780,36.291 64.170,36.443 64.647 C 36.594 65.124,36.962 65.758,37.260 66.057 C 37.559 66.355,37.702 66.762,37.579 66.961 C 37.456 67.160,37.525 67.323,37.734 67.323 C 37.942 67.323,38.297 67.854,38.524 68.504 C 38.750 69.154,39.137 69.685,39.382 69.685 C 39.628 69.685,39.757 69.903,39.668 70.169 C 39.580 70.435,39.831 71.000,40.226 71.424 C 40.621 71.848,40.945 72.428,40.945 72.712 C 40.945 72.996,41.152 73.228,41.404 73.228 C 41.657 73.228,41.756 73.336,41.625 73.467 C 41.493 73.598,41.730 74.075,42.150 74.526 C 42.570 74.976,42.913 75.666,42.913 76.058 C 42.913 76.451,43.101 76.772,43.330 76.772 C 43.560 76.772,43.649 76.930,43.529 77.124 C 43.410 77.318,43.576 77.578,43.900 77.702 C 44.223 77.826,44.488 78.199,44.488 78.531 C 44.488 78.863,44.676 79.134,44.905 79.134 C 45.134 79.134,45.213 79.311,45.079 79.528 C 44.945 79.744,44.990 79.921,45.179 79.921 C 45.476 79.921,46.473 81.660,46.874 82.874 C 46.945 83.091,47.149 83.445,47.326 83.661 C 48.212 84.742,49.758 87.327,50.093 88.287 C 50.301 88.883,50.650 89.370,50.868 89.370 C 51.087 89.370,51.165 89.631,51.043 89.950 C 50.920 90.269,51.038 90.668,51.305 90.836 C 51.953 91.244,53.250 93.305,52.863 93.313 C 52.696 93.316,52.749 93.449,52.982 93.608 C 53.215 93.767,53.835 94.695,54.360 95.669 C 54.885 96.644,55.474 97.556,55.668 97.696 C 55.862 97.837,55.896 98.275,55.745 98.669 C 55.594 99.063,55.589 99.266,55.735 99.121 C 56.100 98.755,57.087 99.807,57.087 100.562 C 57.087 100.903,57.219 101.182,57.382 101.184 C 57.778 101.187,59.055 103.463,59.055 104.166 C 59.055 104.473,59.243 104.724,59.472 104.724 C 59.701 104.724,59.779 104.902,59.646 105.118 C 59.512 105.335,59.590 105.512,59.819 105.512 C 60.049 105.512,60.236 105.783,60.236 106.115 C 60.236 106.446,60.501 106.819,60.825 106.943 C 61.148 107.068,61.315 107.328,61.195 107.522 C 61.075 107.715,61.180 107.874,61.427 107.874 C 61.674 107.874,61.808 108.080,61.724 108.331 C 61.641 108.582,61.977 109.225,62.472 109.758 C 62.966 110.292,63.279 110.877,63.167 111.059 C 63.055 111.240,63.280 111.737,63.667 112.162 C 65.005 113.633,65.351 114.140,66.040 115.630 C 66.421 116.453,66.955 117.362,67.228 117.650 C 67.501 117.938,67.623 118.337,67.500 118.536 C 67.377 118.735,67.420 118.899,67.595 118.900 C 67.982 118.903,69.291 121.138,69.291 121.795 C 69.291 122.055,69.636 122.516,70.058 122.819 C 70.479 123.123,70.718 123.544,70.588 123.753 C 70.458 123.963,70.679 124.374,71.078 124.666 C 71.477 124.958,71.675 125.197,71.517 125.197 C 71.359 125.197,71.577 125.571,72.003 126.027 C 72.429 126.484,72.683 127.103,72.568 127.402 C 72.453 127.701,72.642 128.055,72.988 128.188 C 73.334 128.320,73.520 128.588,73.400 128.781 C 73.280 128.975,73.369 129.134,73.599 129.134 C 73.828 129.134,74.016 129.366,74.016 129.650 C 74.016 129.934,74.351 130.527,74.761 130.967 C 75.633 131.903,76.970 134.317,76.853 134.744 C 76.808 134.906,76.937 135.039,77.139 135.039 C 77.489 135.039,78.027 136.201,77.868 136.614 C 77.826 136.722,78.138 137.215,78.561 137.710 C 78.984 138.204,79.280 138.697,79.218 138.806 C 79.156 138.915,79.334 139.258,79.612 139.567 C 80.828 140.920,81.114 141.339,80.823 141.345 C 80.652 141.348,80.709 141.481,80.949 141.640 C 81.420 141.952,82.720 144.315,82.652 144.735 C 82.629 144.876,82.766 145.099,82.958 145.232 C 83.693 145.741,85.459 149.246,85.195 149.673 C 85.031 149.938,85.092 150.014,85.344 149.858 C 85.578 149.713,85.883 149.952,86.022 150.388 C 86.160 150.824,86.449 151.181,86.664 151.181 C 86.879 151.181,86.945 151.358,86.811 151.575 C 86.677 151.791,86.744 151.969,86.959 151.969 C 87.174 151.969,87.575 152.589,87.849 153.346 C 88.123 154.104,88.499 154.724,88.685 154.724 C 88.871 154.724,88.905 154.915,88.761 155.148 C 88.617 155.381,88.852 155.901,89.284 156.303 C 89.715 156.705,90.309 157.577,90.603 158.241 C 90.897 158.906,91.257 159.449,91.403 159.449 C 91.550 159.449,91.778 159.942,91.910 160.545 C 92.043 161.147,92.588 162.149,93.123 162.771 C 93.657 163.393,94.094 164.140,94.094 164.431 C 94.094 164.722,94.272 164.961,94.488 164.961 C 94.705 164.961,94.882 165.315,94.882 165.748 C 94.882 166.181,95.038 166.535,95.228 166.535 C 95.418 166.535,95.794 167.067,96.063 167.717 C 96.332 168.366,96.696 168.898,96.872 168.898 C 97.209 168.898,97.848 170.463,97.716 170.965 C 97.673 171.127,97.815 171.260,98.031 171.260 C 98.248 171.260,98.425 171.526,98.425 171.850 C 98.425 172.175,98.613 172.441,98.842 172.441 C 99.071 172.441,99.141 172.632,98.997 172.865 C 98.853 173.098,99.064 173.606,99.466 173.993 C 100.390 174.884,101.338 176.252,101.158 176.435 C 101.082 176.512,101.366 176.979,101.790 177.473 C 102.213 177.968,102.500 178.479,102.427 178.610 C 102.354 178.742,102.473 178.959,102.691 179.094 C 102.908 179.228,103.145 179.595,103.216 179.910 C 103.288 180.224,103.656 180.831,104.035 181.260 C 104.414 181.688,104.724 182.271,104.724 182.555 C 104.724 182.839,104.890 183.071,105.092 183.071 C 105.294 183.071,105.565 183.404,105.694 183.812 C 105.823 184.219,106.274 184.950,106.696 185.437 C 107.119 185.924,107.369 186.476,107.252 186.665 C 107.136 186.854,107.200 187.008,107.395 187.008 C 107.590 187.008,108.084 187.628,108.492 188.386 C 109.308 189.901,110.157 189.291,112.205 187.543 C 113.878 184.648,117.924 177.706,121.876 171.301 C 125.992 164.961,131.496 155.851,136.614 145.743 C 140.404 138.976,147.075 128.346,153.543 121.680 C 157.086 116.240,163.780 105.906,168.228 99.661 C 172.074 92.658,181.437 79.921,186.220 71.247 C 192.520 60.236,200.699 49.540,209.197 38.301 C 216.527 27.165,226.378 13.780,237.402 3.987 C 239.370 1.969,237.660 0.748,222.717 0.748 C 209.506 2.315,207.480 6.466,192.913 30.327 C 184.509 46.850,177.619 59.852,165.508 83.071 C 153.543 104.331,138.976 130.157,126.392 151.544 C 117.868 165.748,107.087 187.402,107.087 187.402 C 106.274 184.950,96.457 169.120,86.220 151.498 C 74.761 130.967,58.397 103.698,46.850 83.830 C 34.252 61.708,18.898 35.752,7.087 14.173 C 2.362 5.685,0.722 0.883,0.722 0.883 M281.173 0.772 C 278.103 0.893,271.874 2.362,267.717 3.543 C 262.598 5.922,255.136 11.024,249.433 16.884 C 243.701 23.958,234.646 37.598,224.819 53.134 C 215.401 67.506,205.315 83.231,196.063 97.383 C 188.189 109.055,178.346 124.803,172.855 133.071 C 163.780 147.244,151.575 165.890,144.972 175.959 C 139.882 183.565,130.507 197.635,125.591 206.159 C 122.802 211.024,122.583 214.961,123.105 214.961 C 128.776 224.307,138.976 242.520,146.457 256.665 C 149.945 259.843,153.459 255.541,159.843 245.172 C 167.591 229.828,176.621 216.142,185.409 202.362 C 195.276 186.220,209.197 163.386,220.078 147.404 C 232.283 130.157,246.457 126.139,255.223 130.341 C 261.811 138.189,264.355 149.219,253.040 164.225 C 244.340 174.882,233.465 192.126,218.898 215.980 C 208.080 232.283,198.996 246.307,188.189 262.205 C 176.772 277.165,165.508 298.488,157.480 306.505 C 156.286 392.704,229.721 393.980,242.717 392.834 C 244.483 290.823,245.669 272.244,248.031 257.480 C 252.953 246.307,261.811 230.315,272.047 210.630 C 280.144 195.273,290.748 173.252,299.213 154.963 C 309.163 132.677,321.260 108.974,334.646 82.677 C 344.993 62.477,358.375 37.409,369.574 14.200 C 366.689 7.782,341.314 0.373,340.637 1.562 C 337.557 5.743,333.858 11.237,327.165 22.801 C 319.220 36.420,307.087 58.465,299.213 71.499 C 288.189 90.780,271.260 124.213,255.231 172.441 C 248.270 167.939,233.465 192.126,218.898 215.980 L 156.693 288.836 C 155.047 289.891,155.227 391.746,156.286 392.704 Z M290.678 50.944 C 291.412 51.636,296.063 54.396,300.394 57.542 C 302.366 58.790,301.722 60.791,299.734 64.173 C 297.058 68.321,288.189 82.452,283.393 88.780 C 281.074 57.087,280.510 54.823,282.490 54.705 C 283.393 55.189,285.433 51.275,288.830 49.201 C 290.678 50.944,290.678 50.944,290.678 50.944 M242.429 122.468 C 243.734 123.140,248.425 126.139,255.223 130.341 C 254.277 135.039,246.850 147.244,238.189 159.449 C 229.331 171.260,213.780 161.052,213.780 161.052 C 216.535 157.661,221.023 171.358,225.618 174.399 C 228.346 174.271,230.315 172.056,235.835 162.976 C 241.181 122.063,242.429 122.468,242.429 122.468 Z" stroke="none" fill="#496453" fill-rule="evenodd"/></g></svg>